<mxfile host="app.diagrams.net" agent="Mozilla/5.0 (Windows NT 10.0; Win64; x64) AppleWebKit/537.36 (KHTML, like Gecko) Chrome/128.0.0.0 Safari/537.36" version="24.7.8">
  <diagram name="Page-1" id="vTtVeKuSXSaPbPGQ_42k">
    <mxGraphModel dx="1050" dy="522" grid="1" gridSize="10" guides="1" tooltips="1" connect="1" arrows="1" fold="1" page="1" pageScale="1" pageWidth="850" pageHeight="1100" math="0" shadow="0">
      <root>
        <mxCell id="0" />
        <mxCell id="1" parent="0" />
        <mxCell id="-iVnlrXwqiPQ7yT6hg0g-1" value="S" style="ellipse;whiteSpace=wrap;html=1;aspect=fixed;" vertex="1" parent="1">
          <mxGeometry x="10" y="10" width="50" height="50" as="geometry" />
        </mxCell>
        <mxCell id="-iVnlrXwqiPQ7yT6hg0g-2" value="TERM" style="ellipse;whiteSpace=wrap;html=1;aspect=fixed;" vertex="1" parent="1">
          <mxGeometry x="10" y="90" width="50" height="50" as="geometry" />
        </mxCell>
        <mxCell id="-iVnlrXwqiPQ7yT6hg0g-3" value="TERM" style="ellipse;whiteSpace=wrap;html=1;aspect=fixed;" vertex="1" parent="1">
          <mxGeometry x="10" y="170" width="50" height="50" as="geometry" />
        </mxCell>
        <mxCell id="-iVnlrXwqiPQ7yT6hg0g-4" value="TERM" style="ellipse;whiteSpace=wrap;html=1;aspect=fixed;" vertex="1" parent="1">
          <mxGeometry x="10" y="250" width="50" height="50" as="geometry" />
        </mxCell>
        <mxCell id="-iVnlrXwqiPQ7yT6hg0g-5" value="TERM" style="ellipse;whiteSpace=wrap;html=1;aspect=fixed;" vertex="1" parent="1">
          <mxGeometry x="10" y="330" width="50" height="50" as="geometry" />
        </mxCell>
        <mxCell id="-iVnlrXwqiPQ7yT6hg0g-6" value="BOOL" style="ellipse;whiteSpace=wrap;html=1;aspect=fixed;" vertex="1" parent="1">
          <mxGeometry x="10" y="410" width="50" height="50" as="geometry" />
        </mxCell>
        <mxCell id="-iVnlrXwqiPQ7yT6hg0g-7" value="BOOL" style="ellipse;whiteSpace=wrap;html=1;aspect=fixed;" vertex="1" parent="1">
          <mxGeometry x="10" y="490" width="50" height="50" as="geometry" />
        </mxCell>
        <mxCell id="-iVnlrXwqiPQ7yT6hg0g-8" value="B" style="ellipse;whiteSpace=wrap;html=1;aspect=fixed;" vertex="1" parent="1">
          <mxGeometry x="10" y="1130" width="50" height="50" as="geometry" />
        </mxCell>
        <mxCell id="-iVnlrXwqiPQ7yT6hg0g-9" value="U" style="ellipse;whiteSpace=wrap;html=1;aspect=fixed;" vertex="1" parent="1">
          <mxGeometry x="10" y="970" width="50" height="50" as="geometry" />
        </mxCell>
        <mxCell id="-iVnlrXwqiPQ7yT6hg0g-10" value="BINOP" style="ellipse;whiteSpace=wrap;html=1;aspect=fixed;" vertex="1" parent="1">
          <mxGeometry x="10" y="890" width="50" height="50" as="geometry" />
        </mxCell>
        <mxCell id="-iVnlrXwqiPQ7yT6hg0g-11" value="UNOP" style="ellipse;whiteSpace=wrap;html=1;aspect=fixed;" vertex="1" parent="1">
          <mxGeometry x="10" y="810" width="50" height="50" as="geometry" />
        </mxCell>
        <mxCell id="-iVnlrXwqiPQ7yT6hg0g-12" value="VAR" style="ellipse;whiteSpace=wrap;html=1;aspect=fixed;" vertex="1" parent="1">
          <mxGeometry x="10" y="650" width="50" height="50" as="geometry" />
        </mxCell>
        <mxCell id="-iVnlrXwqiPQ7yT6hg0g-13" value="VAR" style="ellipse;whiteSpace=wrap;html=1;aspect=fixed;" vertex="1" parent="1">
          <mxGeometry x="10" y="730" width="50" height="50" as="geometry" />
        </mxCell>
        <mxCell id="-iVnlrXwqiPQ7yT6hg0g-14" value="VAR" style="ellipse;whiteSpace=wrap;html=1;aspect=fixed;" vertex="1" parent="1">
          <mxGeometry x="10" y="570" width="50" height="50" as="geometry" />
        </mxCell>
        <mxCell id="-iVnlrXwqiPQ7yT6hg0g-15" value="B" style="ellipse;whiteSpace=wrap;html=1;aspect=fixed;" vertex="1" parent="1">
          <mxGeometry x="10" y="1050" width="50" height="50" as="geometry" />
        </mxCell>
        <mxCell id="-iVnlrXwqiPQ7yT6hg0g-16" value="TERM" style="ellipse;whiteSpace=wrap;html=1;aspect=fixed;" vertex="1" parent="1">
          <mxGeometry x="135" y="10" width="50" height="50" as="geometry" />
        </mxCell>
        <mxCell id="-iVnlrXwqiPQ7yT6hg0g-17" value="BOOL" style="ellipse;whiteSpace=wrap;html=1;aspect=fixed;" vertex="1" parent="1">
          <mxGeometry x="135" y="90" width="50" height="50" as="geometry" />
        </mxCell>
        <mxCell id="-iVnlrXwqiPQ7yT6hg0g-18" value="VAR" style="ellipse;whiteSpace=wrap;html=1;aspect=fixed;" vertex="1" parent="1">
          <mxGeometry x="135" y="170" width="50" height="50" as="geometry" />
        </mxCell>
        <mxCell id="-iVnlrXwqiPQ7yT6hg0g-19" value="UNOP" style="ellipse;whiteSpace=wrap;html=1;aspect=fixed;" vertex="1" parent="1">
          <mxGeometry x="135" y="250" width="50" height="50" as="geometry" />
        </mxCell>
        <mxCell id="-iVnlrXwqiPQ7yT6hg0g-20" value="BINOP" style="ellipse;whiteSpace=wrap;html=1;aspect=fixed;" vertex="1" parent="1">
          <mxGeometry x="135" y="330" width="50" height="50" as="geometry" />
        </mxCell>
        <mxCell id="-iVnlrXwqiPQ7yT6hg0g-21" value="TRUE" style="ellipse;whiteSpace=wrap;html=1;aspect=fixed;" vertex="1" parent="1">
          <mxGeometry x="135" y="410" width="50" height="50" as="geometry" />
        </mxCell>
        <mxCell id="-iVnlrXwqiPQ7yT6hg0g-22" value="FALSE" style="ellipse;whiteSpace=wrap;html=1;aspect=fixed;" vertex="1" parent="1">
          <mxGeometry x="135" y="490" width="50" height="50" as="geometry" />
        </mxCell>
        <mxCell id="-iVnlrXwqiPQ7yT6hg0g-23" value="OR" style="ellipse;whiteSpace=wrap;html=1;aspect=fixed;" vertex="1" parent="1">
          <mxGeometry x="135" y="1130" width="50" height="50" as="geometry" />
        </mxCell>
        <mxCell id="-iVnlrXwqiPQ7yT6hg0g-24" value="NOT" style="ellipse;whiteSpace=wrap;html=1;aspect=fixed;" vertex="1" parent="1">
          <mxGeometry x="135" y="970" width="50" height="50" as="geometry" />
        </mxCell>
        <mxCell id="-iVnlrXwqiPQ7yT6hg0g-25" value="B(TERM,TERM)" style="ellipse;whiteSpace=wrap;html=1;aspect=fixed;" vertex="1" parent="1">
          <mxGeometry x="110" y="865" width="100" height="100" as="geometry" />
        </mxCell>
        <mxCell id="-iVnlrXwqiPQ7yT6hg0g-26" value="U(TERM)" style="ellipse;whiteSpace=wrap;html=1;aspect=fixed;" vertex="1" parent="1">
          <mxGeometry x="130" y="805" width="60" height="60" as="geometry" />
        </mxCell>
        <mxCell id="-iVnlrXwqiPQ7yT6hg0g-27" value="X1" style="ellipse;whiteSpace=wrap;html=1;aspect=fixed;" vertex="1" parent="1">
          <mxGeometry x="135" y="650" width="50" height="50" as="geometry" />
        </mxCell>
        <mxCell id="-iVnlrXwqiPQ7yT6hg0g-28" value="X2" style="ellipse;whiteSpace=wrap;html=1;aspect=fixed;" vertex="1" parent="1">
          <mxGeometry x="135" y="730" width="50" height="50" as="geometry" />
        </mxCell>
        <mxCell id="-iVnlrXwqiPQ7yT6hg0g-29" value="X0" style="ellipse;whiteSpace=wrap;html=1;aspect=fixed;" vertex="1" parent="1">
          <mxGeometry x="135" y="570" width="50" height="50" as="geometry" />
        </mxCell>
        <mxCell id="-iVnlrXwqiPQ7yT6hg0g-30" value="AND" style="ellipse;whiteSpace=wrap;html=1;aspect=fixed;" vertex="1" parent="1">
          <mxGeometry x="135" y="1050" width="50" height="50" as="geometry" />
        </mxCell>
        <mxCell id="-iVnlrXwqiPQ7yT6hg0g-31" style="edgeStyle=orthogonalEdgeStyle;rounded=0;orthogonalLoop=1;jettySize=auto;html=1;entryX=0;entryY=0.5;entryDx=0;entryDy=0;" edge="1" parent="1" source="-iVnlrXwqiPQ7yT6hg0g-38" target="-iVnlrXwqiPQ7yT6hg0g-91">
          <mxGeometry relative="1" as="geometry" />
        </mxCell>
        <mxCell id="-iVnlrXwqiPQ7yT6hg0g-32" value="TERM" style="edgeLabel;html=1;align=center;verticalAlign=middle;resizable=0;points=[];" vertex="1" connectable="0" parent="-iVnlrXwqiPQ7yT6hg0g-31">
          <mxGeometry x="-0.0154" y="-2" relative="1" as="geometry">
            <mxPoint as="offset" />
          </mxGeometry>
        </mxCell>
        <mxCell id="-iVnlrXwqiPQ7yT6hg0g-33" style="edgeStyle=orthogonalEdgeStyle;rounded=0;orthogonalLoop=1;jettySize=auto;html=1;entryX=0;entryY=0.5;entryDx=0;entryDy=0;" edge="1" parent="1" source="-iVnlrXwqiPQ7yT6hg0g-38" target="-iVnlrXwqiPQ7yT6hg0g-43">
          <mxGeometry relative="1" as="geometry">
            <Array as="points">
              <mxPoint x="440" y="35" />
              <mxPoint x="440" y="115" />
            </Array>
          </mxGeometry>
        </mxCell>
        <mxCell id="-iVnlrXwqiPQ7yT6hg0g-34" style="edgeStyle=orthogonalEdgeStyle;rounded=0;orthogonalLoop=1;jettySize=auto;html=1;entryX=0;entryY=0.5;entryDx=0;entryDy=0;" edge="1" parent="1" source="-iVnlrXwqiPQ7yT6hg0g-38" target="-iVnlrXwqiPQ7yT6hg0g-49">
          <mxGeometry relative="1" as="geometry">
            <Array as="points">
              <mxPoint x="440" y="35" />
              <mxPoint x="440" y="195" />
            </Array>
          </mxGeometry>
        </mxCell>
        <mxCell id="-iVnlrXwqiPQ7yT6hg0g-35" style="edgeStyle=orthogonalEdgeStyle;rounded=0;orthogonalLoop=1;jettySize=auto;html=1;entryX=0;entryY=0.5;entryDx=0;entryDy=0;" edge="1" parent="1" source="-iVnlrXwqiPQ7yT6hg0g-38" target="-iVnlrXwqiPQ7yT6hg0g-53">
          <mxGeometry relative="1" as="geometry">
            <Array as="points">
              <mxPoint x="440" y="35" />
              <mxPoint x="440" y="275" />
            </Array>
          </mxGeometry>
        </mxCell>
        <mxCell id="-iVnlrXwqiPQ7yT6hg0g-36" style="edgeStyle=orthogonalEdgeStyle;rounded=0;orthogonalLoop=1;jettySize=auto;html=1;entryX=0;entryY=0.5;entryDx=0;entryDy=0;" edge="1" parent="1" source="-iVnlrXwqiPQ7yT6hg0g-38" target="-iVnlrXwqiPQ7yT6hg0g-57">
          <mxGeometry relative="1" as="geometry">
            <Array as="points">
              <mxPoint x="440" y="35" />
              <mxPoint x="440" y="355" />
            </Array>
          </mxGeometry>
        </mxCell>
        <mxCell id="-iVnlrXwqiPQ7yT6hg0g-37" value="E" style="edgeLabel;html=1;align=center;verticalAlign=middle;resizable=0;points=[];" vertex="1" connectable="0" parent="-iVnlrXwqiPQ7yT6hg0g-36">
          <mxGeometry x="-0.6" relative="1" as="geometry">
            <mxPoint as="offset" />
          </mxGeometry>
        </mxCell>
        <mxCell id="-iVnlrXwqiPQ7yT6hg0g-38" value="A" style="ellipse;whiteSpace=wrap;html=1;aspect=fixed;" vertex="1" parent="1">
          <mxGeometry x="480" y="10" width="50" height="50" as="geometry" />
        </mxCell>
        <mxCell id="-iVnlrXwqiPQ7yT6hg0g-39" style="edgeStyle=orthogonalEdgeStyle;rounded=0;orthogonalLoop=1;jettySize=auto;html=1;entryX=0;entryY=0.5;entryDx=0;entryDy=0;" edge="1" parent="1" source="-iVnlrXwqiPQ7yT6hg0g-43" target="-iVnlrXwqiPQ7yT6hg0g-92">
          <mxGeometry relative="1" as="geometry" />
        </mxCell>
        <mxCell id="-iVnlrXwqiPQ7yT6hg0g-40" value="BOOL" style="edgeLabel;html=1;align=center;verticalAlign=middle;resizable=0;points=[];" vertex="1" connectable="0" parent="-iVnlrXwqiPQ7yT6hg0g-39">
          <mxGeometry x="-0.1077" relative="1" as="geometry">
            <mxPoint as="offset" />
          </mxGeometry>
        </mxCell>
        <mxCell id="-iVnlrXwqiPQ7yT6hg0g-41" style="edgeStyle=orthogonalEdgeStyle;rounded=0;orthogonalLoop=1;jettySize=auto;html=1;entryX=0;entryY=0.5;entryDx=0;entryDy=0;" edge="1" parent="1" source="-iVnlrXwqiPQ7yT6hg0g-43" target="-iVnlrXwqiPQ7yT6hg0g-60">
          <mxGeometry relative="1" as="geometry">
            <Array as="points">
              <mxPoint x="420" y="130" />
              <mxPoint x="420" y="435" />
            </Array>
          </mxGeometry>
        </mxCell>
        <mxCell id="-iVnlrXwqiPQ7yT6hg0g-42" style="edgeStyle=orthogonalEdgeStyle;rounded=0;orthogonalLoop=1;jettySize=auto;html=1;entryX=0;entryY=0.5;entryDx=0;entryDy=0;" edge="1" parent="1" source="-iVnlrXwqiPQ7yT6hg0g-43" target="-iVnlrXwqiPQ7yT6hg0g-63">
          <mxGeometry relative="1" as="geometry">
            <Array as="points">
              <mxPoint x="420" y="130" />
              <mxPoint x="420" y="515" />
            </Array>
          </mxGeometry>
        </mxCell>
        <mxCell id="-iVnlrXwqiPQ7yT6hg0g-43" value="C" style="ellipse;whiteSpace=wrap;html=1;aspect=fixed;" vertex="1" parent="1">
          <mxGeometry x="480" y="90" width="50" height="50" as="geometry" />
        </mxCell>
        <mxCell id="-iVnlrXwqiPQ7yT6hg0g-44" style="edgeStyle=orthogonalEdgeStyle;rounded=0;orthogonalLoop=1;jettySize=auto;html=1;entryX=0;entryY=0.5;entryDx=0;entryDy=0;" edge="1" parent="1" source="-iVnlrXwqiPQ7yT6hg0g-49" target="-iVnlrXwqiPQ7yT6hg0g-93">
          <mxGeometry relative="1" as="geometry" />
        </mxCell>
        <mxCell id="-iVnlrXwqiPQ7yT6hg0g-45" value="VAR" style="edgeLabel;html=1;align=center;verticalAlign=middle;resizable=0;points=[];" vertex="1" connectable="0" parent="-iVnlrXwqiPQ7yT6hg0g-44">
          <mxGeometry x="-0.0769" y="-2" relative="1" as="geometry">
            <mxPoint as="offset" />
          </mxGeometry>
        </mxCell>
        <mxCell id="-iVnlrXwqiPQ7yT6hg0g-46" style="edgeStyle=orthogonalEdgeStyle;rounded=0;orthogonalLoop=1;jettySize=auto;html=1;entryX=0;entryY=0.5;entryDx=0;entryDy=0;" edge="1" parent="1" source="-iVnlrXwqiPQ7yT6hg0g-49" target="-iVnlrXwqiPQ7yT6hg0g-87">
          <mxGeometry relative="1" as="geometry">
            <Array as="points">
              <mxPoint x="390" y="210" />
              <mxPoint x="390" y="595" />
            </Array>
          </mxGeometry>
        </mxCell>
        <mxCell id="-iVnlrXwqiPQ7yT6hg0g-47" style="edgeStyle=orthogonalEdgeStyle;rounded=0;orthogonalLoop=1;jettySize=auto;html=1;entryX=0;entryY=0.5;entryDx=0;entryDy=0;" edge="1" parent="1" source="-iVnlrXwqiPQ7yT6hg0g-49" target="-iVnlrXwqiPQ7yT6hg0g-81">
          <mxGeometry relative="1" as="geometry">
            <Array as="points">
              <mxPoint x="390" y="210" />
              <mxPoint x="390" y="675" />
            </Array>
          </mxGeometry>
        </mxCell>
        <mxCell id="-iVnlrXwqiPQ7yT6hg0g-48" style="edgeStyle=orthogonalEdgeStyle;rounded=0;orthogonalLoop=1;jettySize=auto;html=1;entryX=0;entryY=0.5;entryDx=0;entryDy=0;" edge="1" parent="1" source="-iVnlrXwqiPQ7yT6hg0g-49" target="-iVnlrXwqiPQ7yT6hg0g-84">
          <mxGeometry relative="1" as="geometry">
            <Array as="points">
              <mxPoint x="390" y="210" />
              <mxPoint x="390" y="755" />
            </Array>
          </mxGeometry>
        </mxCell>
        <mxCell id="-iVnlrXwqiPQ7yT6hg0g-49" value="E" style="ellipse;whiteSpace=wrap;html=1;aspect=fixed;" vertex="1" parent="1">
          <mxGeometry x="480" y="170" width="50" height="50" as="geometry" />
        </mxCell>
        <mxCell id="-iVnlrXwqiPQ7yT6hg0g-50" style="edgeStyle=orthogonalEdgeStyle;rounded=0;orthogonalLoop=1;jettySize=auto;html=1;entryX=0;entryY=0.5;entryDx=0;entryDy=0;" edge="1" parent="1" source="-iVnlrXwqiPQ7yT6hg0g-53" target="-iVnlrXwqiPQ7yT6hg0g-94">
          <mxGeometry relative="1" as="geometry" />
        </mxCell>
        <mxCell id="-iVnlrXwqiPQ7yT6hg0g-51" value="UNOP" style="edgeLabel;html=1;align=center;verticalAlign=middle;resizable=0;points=[];" vertex="1" connectable="0" parent="-iVnlrXwqiPQ7yT6hg0g-50">
          <mxGeometry x="-0.0769" y="1" relative="1" as="geometry">
            <mxPoint as="offset" />
          </mxGeometry>
        </mxCell>
        <mxCell id="-iVnlrXwqiPQ7yT6hg0g-52" style="edgeStyle=orthogonalEdgeStyle;rounded=0;orthogonalLoop=1;jettySize=auto;html=1;entryX=0;entryY=0.5;entryDx=0;entryDy=0;" edge="1" parent="1" source="-iVnlrXwqiPQ7yT6hg0g-53" target="-iVnlrXwqiPQ7yT6hg0g-78">
          <mxGeometry relative="1" as="geometry">
            <Array as="points">
              <mxPoint x="370" y="290" />
              <mxPoint x="370" y="835" />
            </Array>
          </mxGeometry>
        </mxCell>
        <mxCell id="-iVnlrXwqiPQ7yT6hg0g-53" value="G" style="ellipse;whiteSpace=wrap;html=1;aspect=fixed;" vertex="1" parent="1">
          <mxGeometry x="480" y="250" width="50" height="50" as="geometry" />
        </mxCell>
        <mxCell id="-iVnlrXwqiPQ7yT6hg0g-54" style="edgeStyle=orthogonalEdgeStyle;rounded=0;orthogonalLoop=1;jettySize=auto;html=1;entryX=0;entryY=0.5;entryDx=0;entryDy=0;" edge="1" parent="1" source="-iVnlrXwqiPQ7yT6hg0g-57" target="-iVnlrXwqiPQ7yT6hg0g-95">
          <mxGeometry relative="1" as="geometry" />
        </mxCell>
        <mxCell id="-iVnlrXwqiPQ7yT6hg0g-55" value="BINOP" style="edgeLabel;html=1;align=center;verticalAlign=middle;resizable=0;points=[];" vertex="1" connectable="0" parent="-iVnlrXwqiPQ7yT6hg0g-54">
          <mxGeometry x="-0.0462" y="-1" relative="1" as="geometry">
            <mxPoint as="offset" />
          </mxGeometry>
        </mxCell>
        <mxCell id="-iVnlrXwqiPQ7yT6hg0g-56" style="edgeStyle=orthogonalEdgeStyle;rounded=0;orthogonalLoop=1;jettySize=auto;html=1;entryX=0;entryY=0.5;entryDx=0;entryDy=0;" edge="1" parent="1" source="-iVnlrXwqiPQ7yT6hg0g-57" target="-iVnlrXwqiPQ7yT6hg0g-74">
          <mxGeometry relative="1" as="geometry">
            <Array as="points">
              <mxPoint x="350" y="370" />
              <mxPoint x="350" y="915" />
            </Array>
          </mxGeometry>
        </mxCell>
        <mxCell id="-iVnlrXwqiPQ7yT6hg0g-57" value="I" style="ellipse;whiteSpace=wrap;html=1;aspect=fixed;" vertex="1" parent="1">
          <mxGeometry x="480" y="330" width="50" height="50" as="geometry" />
        </mxCell>
        <mxCell id="-iVnlrXwqiPQ7yT6hg0g-58" style="edgeStyle=orthogonalEdgeStyle;rounded=0;orthogonalLoop=1;jettySize=auto;html=1;entryX=0;entryY=0.5;entryDx=0;entryDy=0;" edge="1" parent="1" source="-iVnlrXwqiPQ7yT6hg0g-60" target="-iVnlrXwqiPQ7yT6hg0g-96">
          <mxGeometry relative="1" as="geometry" />
        </mxCell>
        <mxCell id="-iVnlrXwqiPQ7yT6hg0g-59" value="TRUE" style="edgeLabel;html=1;align=center;verticalAlign=middle;resizable=0;points=[];" vertex="1" connectable="0" parent="-iVnlrXwqiPQ7yT6hg0g-58">
          <mxGeometry x="0.0769" relative="1" as="geometry">
            <mxPoint as="offset" />
          </mxGeometry>
        </mxCell>
        <mxCell id="-iVnlrXwqiPQ7yT6hg0g-60" value="K" style="ellipse;whiteSpace=wrap;html=1;aspect=fixed;" vertex="1" parent="1">
          <mxGeometry x="480" y="410" width="50" height="50" as="geometry" />
        </mxCell>
        <mxCell id="-iVnlrXwqiPQ7yT6hg0g-61" style="edgeStyle=orthogonalEdgeStyle;rounded=0;orthogonalLoop=1;jettySize=auto;html=1;entryX=0;entryY=0.5;entryDx=0;entryDy=0;" edge="1" parent="1" source="-iVnlrXwqiPQ7yT6hg0g-63" target="-iVnlrXwqiPQ7yT6hg0g-97">
          <mxGeometry relative="1" as="geometry" />
        </mxCell>
        <mxCell id="-iVnlrXwqiPQ7yT6hg0g-62" value="FALSE" style="edgeLabel;html=1;align=center;verticalAlign=middle;resizable=0;points=[];" vertex="1" connectable="0" parent="-iVnlrXwqiPQ7yT6hg0g-61">
          <mxGeometry x="0.0462" y="1" relative="1" as="geometry">
            <mxPoint as="offset" />
          </mxGeometry>
        </mxCell>
        <mxCell id="-iVnlrXwqiPQ7yT6hg0g-63" value="M" style="ellipse;whiteSpace=wrap;html=1;aspect=fixed;" vertex="1" parent="1">
          <mxGeometry x="480" y="490" width="50" height="50" as="geometry" />
        </mxCell>
        <mxCell id="-iVnlrXwqiPQ7yT6hg0g-64" style="edgeStyle=orthogonalEdgeStyle;rounded=0;orthogonalLoop=1;jettySize=auto;html=1;entryX=0;entryY=0.5;entryDx=0;entryDy=0;" edge="1" parent="1" source="-iVnlrXwqiPQ7yT6hg0g-66" target="-iVnlrXwqiPQ7yT6hg0g-98">
          <mxGeometry relative="1" as="geometry" />
        </mxCell>
        <mxCell id="-iVnlrXwqiPQ7yT6hg0g-65" value="OR" style="edgeLabel;html=1;align=center;verticalAlign=middle;resizable=0;points=[];" vertex="1" connectable="0" parent="-iVnlrXwqiPQ7yT6hg0g-64">
          <mxGeometry x="-0.0462" y="2" relative="1" as="geometry">
            <mxPoint as="offset" />
          </mxGeometry>
        </mxCell>
        <mxCell id="-iVnlrXwqiPQ7yT6hg0g-66" value="K1" style="ellipse;whiteSpace=wrap;html=1;aspect=fixed;" vertex="1" parent="1">
          <mxGeometry x="480" y="1130" width="50" height="50" as="geometry" />
        </mxCell>
        <mxCell id="-iVnlrXwqiPQ7yT6hg0g-67" style="edgeStyle=orthogonalEdgeStyle;rounded=0;orthogonalLoop=1;jettySize=auto;html=1;entryX=0;entryY=0.5;entryDx=0;entryDy=0;" edge="1" parent="1" source="-iVnlrXwqiPQ7yT6hg0g-69" target="-iVnlrXwqiPQ7yT6hg0g-99">
          <mxGeometry relative="1" as="geometry" />
        </mxCell>
        <mxCell id="-iVnlrXwqiPQ7yT6hg0g-68" value="NOT" style="edgeLabel;html=1;align=center;verticalAlign=middle;resizable=0;points=[];" vertex="1" connectable="0" parent="-iVnlrXwqiPQ7yT6hg0g-67">
          <mxGeometry x="-0.0462" y="-1" relative="1" as="geometry">
            <mxPoint as="offset" />
          </mxGeometry>
        </mxCell>
        <mxCell id="-iVnlrXwqiPQ7yT6hg0g-69" value="G1" style="ellipse;whiteSpace=wrap;html=1;aspect=fixed;" vertex="1" parent="1">
          <mxGeometry x="480" y="970" width="50" height="50" as="geometry" />
        </mxCell>
        <mxCell id="-iVnlrXwqiPQ7yT6hg0g-70" style="edgeStyle=orthogonalEdgeStyle;rounded=0;orthogonalLoop=1;jettySize=auto;html=1;entryX=0;entryY=0.5;entryDx=0;entryDy=0;" edge="1" parent="1" source="-iVnlrXwqiPQ7yT6hg0g-74" target="-iVnlrXwqiPQ7yT6hg0g-100">
          <mxGeometry relative="1" as="geometry" />
        </mxCell>
        <mxCell id="-iVnlrXwqiPQ7yT6hg0g-71" value="B" style="edgeLabel;html=1;align=center;verticalAlign=middle;resizable=0;points=[];" vertex="1" connectable="0" parent="-iVnlrXwqiPQ7yT6hg0g-70">
          <mxGeometry x="0.0462" relative="1" as="geometry">
            <mxPoint as="offset" />
          </mxGeometry>
        </mxCell>
        <mxCell id="-iVnlrXwqiPQ7yT6hg0g-72" style="edgeStyle=orthogonalEdgeStyle;rounded=0;orthogonalLoop=1;jettySize=auto;html=1;entryX=0;entryY=0.5;entryDx=0;entryDy=0;" edge="1" parent="1" source="-iVnlrXwqiPQ7yT6hg0g-74" target="-iVnlrXwqiPQ7yT6hg0g-90">
          <mxGeometry relative="1" as="geometry">
            <Array as="points">
              <mxPoint x="310" y="930" />
              <mxPoint x="310" y="1075" />
            </Array>
          </mxGeometry>
        </mxCell>
        <mxCell id="-iVnlrXwqiPQ7yT6hg0g-73" style="edgeStyle=orthogonalEdgeStyle;rounded=0;orthogonalLoop=1;jettySize=auto;html=1;entryX=0;entryY=0.5;entryDx=0;entryDy=0;" edge="1" parent="1" source="-iVnlrXwqiPQ7yT6hg0g-74" target="-iVnlrXwqiPQ7yT6hg0g-66">
          <mxGeometry relative="1" as="geometry">
            <Array as="points">
              <mxPoint x="310" y="930" />
              <mxPoint x="310" y="1155" />
            </Array>
          </mxGeometry>
        </mxCell>
        <mxCell id="-iVnlrXwqiPQ7yT6hg0g-74" value="Z" style="ellipse;whiteSpace=wrap;html=1;aspect=fixed;" vertex="1" parent="1">
          <mxGeometry x="480" y="890" width="50" height="50" as="geometry" />
        </mxCell>
        <mxCell id="-iVnlrXwqiPQ7yT6hg0g-75" style="edgeStyle=orthogonalEdgeStyle;rounded=0;orthogonalLoop=1;jettySize=auto;html=1;" edge="1" parent="1" source="-iVnlrXwqiPQ7yT6hg0g-78" target="-iVnlrXwqiPQ7yT6hg0g-103">
          <mxGeometry relative="1" as="geometry" />
        </mxCell>
        <mxCell id="-iVnlrXwqiPQ7yT6hg0g-76" value="U" style="edgeLabel;html=1;align=center;verticalAlign=middle;resizable=0;points=[];" vertex="1" connectable="0" parent="-iVnlrXwqiPQ7yT6hg0g-75">
          <mxGeometry x="0.0462" y="1" relative="1" as="geometry">
            <mxPoint as="offset" />
          </mxGeometry>
        </mxCell>
        <mxCell id="-iVnlrXwqiPQ7yT6hg0g-77" style="edgeStyle=orthogonalEdgeStyle;rounded=0;orthogonalLoop=1;jettySize=auto;html=1;entryX=0;entryY=0.5;entryDx=0;entryDy=0;" edge="1" parent="1" source="-iVnlrXwqiPQ7yT6hg0g-78" target="-iVnlrXwqiPQ7yT6hg0g-69">
          <mxGeometry relative="1" as="geometry">
            <Array as="points">
              <mxPoint x="330" y="850" />
              <mxPoint x="330" y="995" />
            </Array>
          </mxGeometry>
        </mxCell>
        <mxCell id="-iVnlrXwqiPQ7yT6hg0g-78" value="U" style="ellipse;whiteSpace=wrap;html=1;aspect=fixed;" vertex="1" parent="1">
          <mxGeometry x="480" y="810" width="50" height="50" as="geometry" />
        </mxCell>
        <mxCell id="-iVnlrXwqiPQ7yT6hg0g-79" style="edgeStyle=orthogonalEdgeStyle;rounded=0;orthogonalLoop=1;jettySize=auto;html=1;entryX=0;entryY=0.5;entryDx=0;entryDy=0;" edge="1" parent="1" source="-iVnlrXwqiPQ7yT6hg0g-81" target="-iVnlrXwqiPQ7yT6hg0g-104">
          <mxGeometry relative="1" as="geometry" />
        </mxCell>
        <mxCell id="-iVnlrXwqiPQ7yT6hg0g-80" value="X1" style="edgeLabel;html=1;align=center;verticalAlign=middle;resizable=0;points=[];" vertex="1" connectable="0" parent="-iVnlrXwqiPQ7yT6hg0g-79">
          <mxGeometry x="-0.0769" relative="1" as="geometry">
            <mxPoint as="offset" />
          </mxGeometry>
        </mxCell>
        <mxCell id="-iVnlrXwqiPQ7yT6hg0g-81" value="Q" style="ellipse;whiteSpace=wrap;html=1;aspect=fixed;" vertex="1" parent="1">
          <mxGeometry x="480" y="650" width="50" height="50" as="geometry" />
        </mxCell>
        <mxCell id="-iVnlrXwqiPQ7yT6hg0g-82" style="edgeStyle=orthogonalEdgeStyle;rounded=0;orthogonalLoop=1;jettySize=auto;html=1;entryX=0;entryY=0.5;entryDx=0;entryDy=0;" edge="1" parent="1" source="-iVnlrXwqiPQ7yT6hg0g-84" target="-iVnlrXwqiPQ7yT6hg0g-105">
          <mxGeometry relative="1" as="geometry" />
        </mxCell>
        <mxCell id="-iVnlrXwqiPQ7yT6hg0g-83" value="X2" style="edgeLabel;html=1;align=center;verticalAlign=middle;resizable=0;points=[];" vertex="1" connectable="0" parent="-iVnlrXwqiPQ7yT6hg0g-82">
          <mxGeometry x="-0.1077" y="1" relative="1" as="geometry">
            <mxPoint as="offset" />
          </mxGeometry>
        </mxCell>
        <mxCell id="-iVnlrXwqiPQ7yT6hg0g-84" value="S" style="ellipse;whiteSpace=wrap;html=1;aspect=fixed;" vertex="1" parent="1">
          <mxGeometry x="480" y="730" width="50" height="50" as="geometry" />
        </mxCell>
        <mxCell id="-iVnlrXwqiPQ7yT6hg0g-85" style="edgeStyle=orthogonalEdgeStyle;rounded=0;orthogonalLoop=1;jettySize=auto;html=1;entryX=0;entryY=0.5;entryDx=0;entryDy=0;" edge="1" parent="1" source="-iVnlrXwqiPQ7yT6hg0g-87" target="-iVnlrXwqiPQ7yT6hg0g-106">
          <mxGeometry relative="1" as="geometry" />
        </mxCell>
        <mxCell id="-iVnlrXwqiPQ7yT6hg0g-86" value="X0" style="edgeLabel;html=1;align=center;verticalAlign=middle;resizable=0;points=[];" vertex="1" connectable="0" parent="-iVnlrXwqiPQ7yT6hg0g-85">
          <mxGeometry x="-0.0769" relative="1" as="geometry">
            <mxPoint as="offset" />
          </mxGeometry>
        </mxCell>
        <mxCell id="-iVnlrXwqiPQ7yT6hg0g-87" value="O" style="ellipse;whiteSpace=wrap;html=1;aspect=fixed;" vertex="1" parent="1">
          <mxGeometry x="480" y="570" width="50" height="50" as="geometry" />
        </mxCell>
        <mxCell id="-iVnlrXwqiPQ7yT6hg0g-88" style="edgeStyle=orthogonalEdgeStyle;rounded=0;orthogonalLoop=1;jettySize=auto;html=1;entryX=0;entryY=0.5;entryDx=0;entryDy=0;" edge="1" parent="1" source="-iVnlrXwqiPQ7yT6hg0g-90" target="-iVnlrXwqiPQ7yT6hg0g-107">
          <mxGeometry relative="1" as="geometry" />
        </mxCell>
        <mxCell id="-iVnlrXwqiPQ7yT6hg0g-89" value="AND" style="edgeLabel;html=1;align=center;verticalAlign=middle;resizable=0;points=[];" vertex="1" connectable="0" parent="-iVnlrXwqiPQ7yT6hg0g-88">
          <mxGeometry x="-0.0769" y="2" relative="1" as="geometry">
            <mxPoint as="offset" />
          </mxGeometry>
        </mxCell>
        <mxCell id="-iVnlrXwqiPQ7yT6hg0g-90" value="I1" style="ellipse;whiteSpace=wrap;html=1;aspect=fixed;" vertex="1" parent="1">
          <mxGeometry x="480" y="1050" width="50" height="50" as="geometry" />
        </mxCell>
        <mxCell id="-iVnlrXwqiPQ7yT6hg0g-91" value="B" style="ellipse;whiteSpace=wrap;html=1;aspect=fixed;" vertex="1" parent="1">
          <mxGeometry x="595" y="10" width="50" height="50" as="geometry" />
        </mxCell>
        <mxCell id="-iVnlrXwqiPQ7yT6hg0g-92" value="D" style="ellipse;whiteSpace=wrap;html=1;aspect=fixed;" vertex="1" parent="1">
          <mxGeometry x="595" y="90" width="50" height="50" as="geometry" />
        </mxCell>
        <mxCell id="-iVnlrXwqiPQ7yT6hg0g-93" value="F" style="ellipse;whiteSpace=wrap;html=1;aspect=fixed;" vertex="1" parent="1">
          <mxGeometry x="595" y="170" width="50" height="50" as="geometry" />
        </mxCell>
        <mxCell id="-iVnlrXwqiPQ7yT6hg0g-94" value="H" style="ellipse;whiteSpace=wrap;html=1;aspect=fixed;" vertex="1" parent="1">
          <mxGeometry x="595" y="250" width="50" height="50" as="geometry" />
        </mxCell>
        <mxCell id="-iVnlrXwqiPQ7yT6hg0g-95" value="J" style="ellipse;whiteSpace=wrap;html=1;aspect=fixed;" vertex="1" parent="1">
          <mxGeometry x="595" y="330" width="50" height="50" as="geometry" />
        </mxCell>
        <mxCell id="-iVnlrXwqiPQ7yT6hg0g-96" value="L" style="ellipse;whiteSpace=wrap;html=1;aspect=fixed;" vertex="1" parent="1">
          <mxGeometry x="595" y="410" width="50" height="50" as="geometry" />
        </mxCell>
        <mxCell id="-iVnlrXwqiPQ7yT6hg0g-97" value="N" style="ellipse;whiteSpace=wrap;html=1;aspect=fixed;" vertex="1" parent="1">
          <mxGeometry x="595" y="490" width="50" height="50" as="geometry" />
        </mxCell>
        <mxCell id="-iVnlrXwqiPQ7yT6hg0g-98" value="L1" style="ellipse;whiteSpace=wrap;html=1;aspect=fixed;" vertex="1" parent="1">
          <mxGeometry x="595" y="1130" width="50" height="50" as="geometry" />
        </mxCell>
        <mxCell id="-iVnlrXwqiPQ7yT6hg0g-99" value="H1" style="ellipse;whiteSpace=wrap;html=1;aspect=fixed;" vertex="1" parent="1">
          <mxGeometry x="595" y="970" width="50" height="50" as="geometry" />
        </mxCell>
        <mxCell id="-iVnlrXwqiPQ7yT6hg0g-100" value="A1" style="ellipse;whiteSpace=wrap;html=1;aspect=fixed;" vertex="1" parent="1">
          <mxGeometry x="595" y="890" width="50" height="50" as="geometry" />
        </mxCell>
        <mxCell id="-iVnlrXwqiPQ7yT6hg0g-101" style="edgeStyle=orthogonalEdgeStyle;rounded=0;orthogonalLoop=1;jettySize=auto;html=1;entryX=0;entryY=0.5;entryDx=0;entryDy=0;" edge="1" parent="1" source="-iVnlrXwqiPQ7yT6hg0g-103" target="-iVnlrXwqiPQ7yT6hg0g-111">
          <mxGeometry relative="1" as="geometry" />
        </mxCell>
        <mxCell id="-iVnlrXwqiPQ7yT6hg0g-102" value="(" style="edgeLabel;html=1;align=center;verticalAlign=middle;resizable=0;points=[];" vertex="1" connectable="0" parent="-iVnlrXwqiPQ7yT6hg0g-101">
          <mxGeometry relative="1" as="geometry">
            <mxPoint as="offset" />
          </mxGeometry>
        </mxCell>
        <mxCell id="-iVnlrXwqiPQ7yT6hg0g-103" value="V" style="ellipse;whiteSpace=wrap;html=1;aspect=fixed;" vertex="1" parent="1">
          <mxGeometry x="595" y="810" width="50" height="50" as="geometry" />
        </mxCell>
        <mxCell id="-iVnlrXwqiPQ7yT6hg0g-104" value="R" style="ellipse;whiteSpace=wrap;html=1;aspect=fixed;" vertex="1" parent="1">
          <mxGeometry x="595" y="650" width="50" height="50" as="geometry" />
        </mxCell>
        <mxCell id="-iVnlrXwqiPQ7yT6hg0g-105" value="T" style="ellipse;whiteSpace=wrap;html=1;aspect=fixed;" vertex="1" parent="1">
          <mxGeometry x="595" y="730" width="50" height="50" as="geometry" />
        </mxCell>
        <mxCell id="-iVnlrXwqiPQ7yT6hg0g-106" value="P" style="ellipse;whiteSpace=wrap;html=1;aspect=fixed;" vertex="1" parent="1">
          <mxGeometry x="595" y="570" width="50" height="50" as="geometry" />
        </mxCell>
        <mxCell id="-iVnlrXwqiPQ7yT6hg0g-107" value="J1" style="ellipse;whiteSpace=wrap;html=1;aspect=fixed;" vertex="1" parent="1">
          <mxGeometry x="595" y="1050" width="50" height="50" as="geometry" />
        </mxCell>
        <mxCell id="-iVnlrXwqiPQ7yT6hg0g-108" style="edgeStyle=orthogonalEdgeStyle;rounded=0;orthogonalLoop=1;jettySize=auto;html=1;entryX=0;entryY=0.5;entryDx=0;entryDy=0;" edge="1" parent="1" source="-iVnlrXwqiPQ7yT6hg0g-111" target="-iVnlrXwqiPQ7yT6hg0g-114">
          <mxGeometry relative="1" as="geometry" />
        </mxCell>
        <mxCell id="-iVnlrXwqiPQ7yT6hg0g-109" value="TERM" style="edgeLabel;html=1;align=center;verticalAlign=middle;resizable=0;points=[];" vertex="1" connectable="0" parent="-iVnlrXwqiPQ7yT6hg0g-108">
          <mxGeometry x="-0.15" y="-1" relative="1" as="geometry">
            <mxPoint as="offset" />
          </mxGeometry>
        </mxCell>
        <mxCell id="-iVnlrXwqiPQ7yT6hg0g-110" style="edgeStyle=orthogonalEdgeStyle;rounded=0;orthogonalLoop=1;jettySize=auto;html=1;entryX=1;entryY=0.5;entryDx=0;entryDy=0;" edge="1" parent="1" source="-iVnlrXwqiPQ7yT6hg0g-111" target="-iVnlrXwqiPQ7yT6hg0g-91">
          <mxGeometry relative="1" as="geometry">
            <Array as="points">
              <mxPoint x="710" y="35" />
            </Array>
          </mxGeometry>
        </mxCell>
        <mxCell id="-iVnlrXwqiPQ7yT6hg0g-111" value="W" style="ellipse;whiteSpace=wrap;html=1;aspect=fixed;" vertex="1" parent="1">
          <mxGeometry x="685" y="810" width="50" height="50" as="geometry" />
        </mxCell>
        <mxCell id="-iVnlrXwqiPQ7yT6hg0g-112" style="edgeStyle=orthogonalEdgeStyle;rounded=0;orthogonalLoop=1;jettySize=auto;html=1;entryX=0;entryY=0.5;entryDx=0;entryDy=0;" edge="1" parent="1" source="-iVnlrXwqiPQ7yT6hg0g-114" target="-iVnlrXwqiPQ7yT6hg0g-115">
          <mxGeometry relative="1" as="geometry" />
        </mxCell>
        <mxCell id="-iVnlrXwqiPQ7yT6hg0g-113" value=")" style="edgeLabel;html=1;align=center;verticalAlign=middle;resizable=0;points=[];" vertex="1" connectable="0" parent="-iVnlrXwqiPQ7yT6hg0g-112">
          <mxGeometry x="-0.25" y="2" relative="1" as="geometry">
            <mxPoint as="offset" />
          </mxGeometry>
        </mxCell>
        <mxCell id="-iVnlrXwqiPQ7yT6hg0g-114" value="X" style="ellipse;whiteSpace=wrap;html=1;aspect=fixed;" vertex="1" parent="1">
          <mxGeometry x="785" y="810" width="50" height="50" as="geometry" />
        </mxCell>
        <mxCell id="-iVnlrXwqiPQ7yT6hg0g-115" value="Y" style="ellipse;whiteSpace=wrap;html=1;aspect=fixed;" vertex="1" parent="1">
          <mxGeometry x="875" y="810" width="50" height="50" as="geometry" />
        </mxCell>
        <mxCell id="-iVnlrXwqiPQ7yT6hg0g-116" style="edgeStyle=orthogonalEdgeStyle;rounded=0;orthogonalLoop=1;jettySize=auto;html=1;entryX=0;entryY=0.5;entryDx=0;entryDy=0;" edge="1" parent="1" target="-iVnlrXwqiPQ7yT6hg0g-121">
          <mxGeometry relative="1" as="geometry">
            <mxPoint x="645" y="915" as="sourcePoint" />
          </mxGeometry>
        </mxCell>
        <mxCell id="-iVnlrXwqiPQ7yT6hg0g-117" value="(" style="edgeLabel;html=1;align=center;verticalAlign=middle;resizable=0;points=[];" vertex="1" connectable="0" parent="-iVnlrXwqiPQ7yT6hg0g-116">
          <mxGeometry relative="1" as="geometry">
            <mxPoint as="offset" />
          </mxGeometry>
        </mxCell>
        <mxCell id="-iVnlrXwqiPQ7yT6hg0g-118" style="edgeStyle=orthogonalEdgeStyle;rounded=0;orthogonalLoop=1;jettySize=auto;html=1;entryX=0;entryY=0.5;entryDx=0;entryDy=0;" edge="1" parent="1" source="-iVnlrXwqiPQ7yT6hg0g-121" target="-iVnlrXwqiPQ7yT6hg0g-124">
          <mxGeometry relative="1" as="geometry" />
        </mxCell>
        <mxCell id="-iVnlrXwqiPQ7yT6hg0g-119" value="TERM" style="edgeLabel;html=1;align=center;verticalAlign=middle;resizable=0;points=[];" vertex="1" connectable="0" parent="-iVnlrXwqiPQ7yT6hg0g-118">
          <mxGeometry x="-0.15" y="-1" relative="1" as="geometry">
            <mxPoint as="offset" />
          </mxGeometry>
        </mxCell>
        <mxCell id="-iVnlrXwqiPQ7yT6hg0g-120" style="edgeStyle=orthogonalEdgeStyle;rounded=0;orthogonalLoop=1;jettySize=auto;html=1;entryX=1;entryY=0.5;entryDx=0;entryDy=0;" edge="1" parent="1" source="-iVnlrXwqiPQ7yT6hg0g-121" target="-iVnlrXwqiPQ7yT6hg0g-91">
          <mxGeometry relative="1" as="geometry">
            <Array as="points">
              <mxPoint x="710" y="880" />
              <mxPoint x="950" y="880" />
              <mxPoint x="950" y="35" />
            </Array>
          </mxGeometry>
        </mxCell>
        <mxCell id="-iVnlrXwqiPQ7yT6hg0g-121" value="B1" style="ellipse;whiteSpace=wrap;html=1;aspect=fixed;" vertex="1" parent="1">
          <mxGeometry x="685" y="890" width="50" height="50" as="geometry" />
        </mxCell>
        <mxCell id="-iVnlrXwqiPQ7yT6hg0g-122" style="edgeStyle=orthogonalEdgeStyle;rounded=0;orthogonalLoop=1;jettySize=auto;html=1;entryX=0;entryY=0.5;entryDx=0;entryDy=0;" edge="1" parent="1" source="-iVnlrXwqiPQ7yT6hg0g-124" target="-iVnlrXwqiPQ7yT6hg0g-128">
          <mxGeometry relative="1" as="geometry" />
        </mxCell>
        <mxCell id="-iVnlrXwqiPQ7yT6hg0g-123" value="," style="edgeLabel;html=1;align=center;verticalAlign=middle;resizable=0;points=[];" vertex="1" connectable="0" parent="-iVnlrXwqiPQ7yT6hg0g-122">
          <mxGeometry x="-0.15" relative="1" as="geometry">
            <mxPoint as="offset" />
          </mxGeometry>
        </mxCell>
        <mxCell id="-iVnlrXwqiPQ7yT6hg0g-124" value="C1" style="ellipse;whiteSpace=wrap;html=1;aspect=fixed;" vertex="1" parent="1">
          <mxGeometry x="785" y="890" width="50" height="50" as="geometry" />
        </mxCell>
        <mxCell id="-iVnlrXwqiPQ7yT6hg0g-125" style="edgeStyle=orthogonalEdgeStyle;rounded=0;orthogonalLoop=1;jettySize=auto;html=1;entryX=0;entryY=0.5;entryDx=0;entryDy=0;" edge="1" parent="1" source="-iVnlrXwqiPQ7yT6hg0g-128" target="-iVnlrXwqiPQ7yT6hg0g-131">
          <mxGeometry relative="1" as="geometry" />
        </mxCell>
        <mxCell id="-iVnlrXwqiPQ7yT6hg0g-126" value="TERM" style="edgeLabel;html=1;align=center;verticalAlign=middle;resizable=0;points=[];" vertex="1" connectable="0" parent="-iVnlrXwqiPQ7yT6hg0g-125">
          <mxGeometry x="-0.2444" y="-2" relative="1" as="geometry">
            <mxPoint as="offset" />
          </mxGeometry>
        </mxCell>
        <mxCell id="-iVnlrXwqiPQ7yT6hg0g-127" style="edgeStyle=orthogonalEdgeStyle;rounded=0;orthogonalLoop=1;jettySize=auto;html=1;endArrow=none;endFill=0;" edge="1" parent="1" source="-iVnlrXwqiPQ7yT6hg0g-128">
          <mxGeometry relative="1" as="geometry">
            <mxPoint x="950" y="690" as="targetPoint" />
            <Array as="points">
              <mxPoint x="900" y="880" />
              <mxPoint x="951" y="880" />
            </Array>
          </mxGeometry>
        </mxCell>
        <mxCell id="-iVnlrXwqiPQ7yT6hg0g-128" value="D1" style="ellipse;whiteSpace=wrap;html=1;aspect=fixed;" vertex="1" parent="1">
          <mxGeometry x="875" y="890" width="50" height="50" as="geometry" />
        </mxCell>
        <mxCell id="-iVnlrXwqiPQ7yT6hg0g-129" style="edgeStyle=orthogonalEdgeStyle;rounded=0;orthogonalLoop=1;jettySize=auto;html=1;entryX=0;entryY=0.5;entryDx=0;entryDy=0;" edge="1" parent="1" source="-iVnlrXwqiPQ7yT6hg0g-131" target="-iVnlrXwqiPQ7yT6hg0g-132">
          <mxGeometry relative="1" as="geometry" />
        </mxCell>
        <mxCell id="-iVnlrXwqiPQ7yT6hg0g-130" value=")" style="edgeLabel;html=1;align=center;verticalAlign=middle;resizable=0;points=[];" vertex="1" connectable="0" parent="-iVnlrXwqiPQ7yT6hg0g-129">
          <mxGeometry relative="1" as="geometry">
            <mxPoint as="offset" />
          </mxGeometry>
        </mxCell>
        <mxCell id="-iVnlrXwqiPQ7yT6hg0g-131" value="E1" style="ellipse;whiteSpace=wrap;html=1;aspect=fixed;" vertex="1" parent="1">
          <mxGeometry x="970" y="890" width="50" height="50" as="geometry" />
        </mxCell>
        <mxCell id="-iVnlrXwqiPQ7yT6hg0g-132" value="F1" style="ellipse;whiteSpace=wrap;html=1;aspect=fixed;" vertex="1" parent="1">
          <mxGeometry x="1070" y="890" width="50" height="50" as="geometry" />
        </mxCell>
      </root>
    </mxGraphModel>
  </diagram>
</mxfile>
